<?xml version="1.0" encoding="UTF-8" standalone="no"?>
<!-- Created with Inkscape (http://www.inkscape.org/) -->

<svg
   xmlns:dc="http://purl.org/dc/elements/1.1/"
   xmlns:cc="http://creativecommons.org/ns#"
   xmlns:rdf="http://www.w3.org/1999/02/22-rdf-syntax-ns#"
   xmlns:svg="http://www.w3.org/2000/svg"
   xmlns="http://www.w3.org/2000/svg"
   xmlns:sodipodi="http://sodipodi.sourceforge.net/DTD/sodipodi-0.dtd"
   xmlns:inkscape="http://www.inkscape.org/namespaces/inkscape"
   id="svg4136"
   version="1.1"
   inkscape:version="0.91 r13725"
   width="640"
   height="640"
   viewBox="0 0 640 640"
   sodipodi:docname="ffmpeg-wrapper-logo.svg"
   inkscape:export-filename="C:\Users\Richard\Desktop\ffmpeg-wrapper-logo----.png"
   inkscape:export-xdpi="72"
   inkscape:export-ydpi="72">
  <metadata
     id="metadata4142">
    <rdf:RDF>
      <cc:Work
         rdf:about="">
        <dc:format>image/svg+xml</dc:format>
        <dc:type
           rdf:resource="http://purl.org/dc/dcmitype/StillImage" />
        <dc:title></dc:title>
      </cc:Work>
    </rdf:RDF>
  </metadata>
  <defs
     id="defs4140" />
  <sodipodi:namedview
     pagecolor="#ffffff"
     bordercolor="#666666"
     borderopacity="1"
     objecttolerance="10"
     gridtolerance="10"
     guidetolerance="10"
     inkscape:pageopacity="0"
     inkscape:pageshadow="2"
     inkscape:window-width="1872"
     inkscape:window-height="1057"
     id="namedview4138"
     showgrid="false"
     inkscape:zoom="1.3875"
     inkscape:cx="318.67077"
     inkscape:cy="309.90991"
     inkscape:window-x="2200"
     inkscape:window-y="-8"
     inkscape:window-maximized="1"
     inkscape:current-layer="layer2" />
  <g
     inkscape:groupmode="layer"
     id="layer1"
     inkscape:label="FFMPEG Logo"
     style="display:inline">
    <path
       style="fill:#008600"
       d="m 148.52134,498.00089 c -5.9473,-2.731 -8.6124,-5.51862 -11.2023,-11.71719 -2.438,-5.83495 -2.4383,-11.01543 -9e-4,-16.90955 1.3596,-3.28774 43.5973,-46.33869 144.375,-147.15476 80.179,-80.20945 142.4532,-143.46043 142.4532,-144.68749 0,-1.98403 -1.827,-2.18009 -20.3153,-2.18009 l -20.3152,0 -105.6223,105.70828 c -63.4501,63.50182 -107.5809,106.7278 -110.5278,108.2617 -10.6152,5.52523 -24.489,0.50636 -29.578,-10.69988 -2.1747,-4.78889 -2.3365,-9.16939 -2.3365,-63.27011 0,-54.2212 0.1574,-58.46081 2.3437,-63.125 1.5038,-3.2083 14.4838,-17.0909 36.2225,-38.7413 18.6334,-18.55774 33.8789,-34.69094 33.8789,-35.85158 0,-1.90517 -2.7029,-2.14899 -27.8125,-2.50868 -25.9167,-0.37127 -28.166,-0.58749 -32.999,-3.17207 -15.8307,-8.46591 -15.0349,-31.79462 1.3383,-39.23096 4.7232,-2.14518 9.3282,-2.31752 62.6065,-2.34296 33.9194,-0.0162 59.2608,0.47517 61.7809,1.19793 4.8015,1.37704 10.6756,6.45871 13.3224,11.52505 2.0768,3.97524 2.307,13.12439 0.4555,18.1057 -0.7193,1.93539 -24.9213,27.16087 -53.7822,56.05662 l -52.4745,52.53772 0.3448,20.58727 c 0.2584,15.43061 0.7354,20.58726 1.9042,20.58726 0.8577,0 41.3577,-39.77305 90,-88.38455 61.659,-61.61992 89.8479,-88.9684 93.088,-90.31251 3.9652,-1.64499 13.2297,-1.92391 63.125,-1.90049 54.0633,0.0254 58.855,0.20077 63.4776,2.32346 5.9473,2.731 8.6124,5.51861 11.2023,11.7172 2.2684,5.42887 2.383,8.5446 0.5633,15.3069 -1.1665,4.33446 -20.4876,24.15737 -145.1532,148.92276 -84.9478,85.01578 -143.4561,144.49158 -142.9488,145.3125 0.573,0.92707 7.5977,1.38973 21.1005,1.38973 l 20.2415,0 105.6222,-105.70829 c 59.029,-59.07716 107.668,-106.77437 110.2599,-108.125 11.329,-5.90355 24.3643,-1.23116 29.8748,10.70829 2.1387,4.63407 2.3076,9.2539 2.3076,63.125 0,54.2212 -0.1574,58.46081 -2.3436,63.125 -1.5039,3.2083 -14.4839,17.0909 -36.2226,38.74131 -18.6334,18.55774 -33.8789,34.69094 -33.8789,35.85158 0,1.90517 2.7029,2.14899 27.8125,2.50869 31.5109,0.4514 34.8267,1.25964 40.531,9.8794 7.7283,11.67821 3.586,26.86626 -8.8702,32.52361 -4.7233,2.14519 -9.3283,2.31752 -62.6065,2.34296 -33.9194,0.0161 -59.2609,-0.47517 -61.781,-1.19792 -4.8014,-1.37705 -10.6756,-6.45872 -13.3224,-11.52505 -2.0768,-3.97524 -2.3069,-13.12439 -0.4555,-18.1057 0.7193,-1.93539 24.9213,-27.16087 53.7823,-56.05662 l 52.4744,-52.53773 -0.3448,-20.48442 c -0.2685,-15.94863 -0.722,-20.60983 -2.0482,-21.0509 -1.0125,-0.33671 -38.0318,35.74879 -91.2631,88.96103 -69.8211,69.79602 -90.5192,89.80271 -93.9133,90.77615 -2.6229,0.75222 -27.2163,1.2377 -61.8619,1.22116 -53.1226,-0.0254 -57.8896,-0.20255 -62.5083,-2.32346 z"
       id="path4148-4"
       inkscape:connector-curvature="0" />
  </g>
  <g
     inkscape:groupmode="layer"
     id="layer2"
     inkscape:label="Brackets"
     style="display:inline">
    <path
       style="fill:#a80101"
       d="m 33.011776,605.3949 c -0.32869,-0.86507 -0.45345,-129.82284 -0.27724,-286.57284 l 0.32039,-284.999985 71.250004,0 71.24999,0 0.34265,20.92206 0.34266,20.92207 -45.96765,0.32793 -45.96765,0.32794 -0.31567,243.049265 c -0.25146,193.61465 0.003,243.25146 1.25,244.04336 0.86112,0.54674 21.68865,1.0027 46.28339,1.01322 l 44.71772,0.0191 -0.34273,20.9375 -0.34272,20.9375 -70.97275,0.32284 c -56.114644,0.25525 -71.097884,-0.006 -71.570394,-1.25 z m 430.668144,-19.6876 0,-21.26024 44.84695,0 c 36.21454,0 45.11761,-0.32615 46.25316,-1.6944 1.03339,-1.24515 1.32254,-65.95563 1.09057,-244.0625 l -0.31568,-242.368085 -45.9375,-0.3279 -45.9375,-0.32791 0,-21.24483 0,-21.24484 71.5625,0.32274 71.5625,0.32274 0,286.249985 0,286.25 -71.5625,0.32274 -71.5625,0.32274 z"
       id="path4150-5"
       inkscape:connector-curvature="0"
       sodipodi:nodetypes="cscccccccscscccsccccssscccccccccccc" />
  </g>
</svg>
